<?xml version="1.0" standalone="no"?>
<!DOCTYPE svg PUBLIC "-//W3C//DTD SVG 20010904//EN"
 "http://www.w3.org/TR/2001/REC-SVG-20010904/DTD/svg10.dtd">
<svg version="1.0" xmlns="http://www.w3.org/2000/svg"
 width="300.000000pt" height="300.000000pt" viewBox="0 0 300.000000 300.000000"
 preserveAspectRatio="xMidYMid meet">
<metadata>
Created by potrace 1.10, written by Peter Selinger 2001-2011
</metadata>
<g transform="translate(0.000000,300.000000) scale(0.100000,-0.100000)"
fill="#000000" stroke="none">
<path d="M1466 2782 c-15 -31 -63 -89 -111 -137 -92 -93 -102 -115 -91 -208 6
-49 5 -51 -9 -27 -28 47 0 199 41 223 17 10 18 27 2 27 -21 -1 -58 -86 -58
-132 0 -23 -3 -38 -7 -34 -9 9 -34 93 -36 124 -3 31 -31 47 -47 27 -15 -18 -6
-45 15 -45 8 0 22 -16 30 -36 20 -48 19 -51 -8 -26 -13 12 -45 26 -72 31 -27
5 -51 14 -53 20 -5 16 -22 13 -22 -4 0 -8 12 -17 28 -20 71 -15 100 -27 122
-50 23 -25 23 -25 2 -25 -12 0 -32 11 -46 25 -14 14 -34 25 -45 25 -21 0 -61
-44 -61 -68 0 -11 -3 -12 -13 -3 -17 13 -61 -24 -53 -45 3 -7 -1 -25 -9 -40
l-14 -27 -7 27 c-9 38 -74 78 -74 46 0 -5 9 -10 21 -10 13 0 25 -11 35 -35 16
-40 17 -45 5 -45 -4 0 -13 15 -19 33 l-11 32 3 -32 c2 -25 -2 -34 -16 -39 -10
-3 -18 -11 -19 -17 0 -7 -2 -25 -4 -42 -3 -21 -1 -25 5 -15 5 8 12 11 15 8 10
-10 -2 -25 -25 -31 -22 -6 -25 5 -9 35 9 16 8 19 -3 16 -7 -3 -15 -19 -18 -37
-7 -45 -23 -40 -36 11 -9 32 -13 39 -19 26 -4 -11 1 -34 14 -58 12 -22 21 -43
21 -45 0 -2 -13 -11 -30 -20 -20 -10 -33 -28 -41 -55 -11 -37 -14 -39 -29 -25
-25 23 -41 19 -30 -7 5 -13 11 -36 15 -51 4 -19 16 -32 37 -41 29 -13 30 -14
10 -20 -28 -9 -28 -19 0 -56 17 -24 19 -32 9 -44 -12 -14 -17 -13 -45 9 -35
26 -56 32 -56 15 0 -13 46 -60 58 -60 6 0 6 -19 1 -46 -9 -50 -6 -64 16 -64 8
0 19 -9 25 -20 8 -15 8 -20 -2 -20 -9 0 -9 -3 0 -12 7 -7 12 -25 12 -40 0 -23
-4 -28 -24 -28 -27 0 -45 -18 -28 -29 5 -3 64 -5 131 -3 97 3 121 6 121 18 0
9 -11 14 -35 14 -32 0 -35 2 -30 23 11 47 12 86 1 91 -6 3 -4 5 4 5 48 -3 50
-1 50 61 0 46 4 62 18 71 14 9 17 23 13 91 -2 50 1 84 8 91 8 8 12 -54 13
-233 l2 -245 6 255 c3 140 7 256 8 258 1 1 7 2 14 2 8 0 9 -85 4 -335 -4 -223
-3 -335 4 -335 5 0 10 15 10 33 0 17 0 172 0 344 0 196 3 314 9 318 7 4 12
-37 14 -112 l3 -118 2 122 c1 76 6 124 13 129 8 5 10 -63 8 -249 -2 -140 -1
-259 4 -263 8 -9 9 -3 7 298 -1 157 2 238 9 243 8 4 11 -45 11 -159 0 -91 3
-166 8 -166 4 0 6 75 4 166 -2 109 0 170 7 177 8 8 11 -21 11 -98 0 -59 3
-106 6 -102 4 3 6 55 5 116 -1 67 2 112 8 116 8 4 11 -42 11 -144 0 -83 4
-151 8 -151 4 0 6 68 4 151 -3 103 -1 154 7 162 10 10 16 -116 13 -265 0 -16
4 -28 9 -28 5 0 9 68 9 159 0 205 18 228 23 29 l3 -143 2 147 c1 85 6 149 12
153 6 4 10 -42 10 -129 0 -77 4 -136 9 -136 6 0 7 59 4 146 -5 122 -3 146 8
142 10 -3 15 -35 19 -124 l6 -119 2 108 c2 128 21 139 24 14 l2 -82 3 78 c3
56 7 77 16 74 8 -2 11 -21 9 -54 -2 -29 1 -54 7 -57 7 -5 11 11 11 49 0 38 4
54 11 49 6 -3 8 -17 5 -30 -4 -14 -2 -24 4 -24 5 0 10 14 10 30 0 25 4 30 25
30 18 0 25 -5 25 -19 0 -11 -5 -23 -10 -26 -6 -4 -7 -12 -3 -18 17 -28 10 -46
-37 -92 -57 -56 -62 -80 -25 -123 16 -19 26 -44 27 -68 1 -37 1 -38 5 -6 2 17
8 32 13 32 5 0 6 -15 3 -34 -3 -21 -1 -36 7 -41 10 -6 12 -1 7 23 -4 21 -3 32
5 32 7 0 9 -20 5 -66 -6 -57 -4 -65 9 -60 9 3 17 6 18 6 1 0 -2 25 -8 56 -8
45 -7 57 5 65 11 6 15 1 20 -24 6 -30 6 -30 8 11 1 49 18 56 24 10 3 -27 4
-25 6 12 1 25 8 56 16 70 23 40 18 58 -29 103 -40 38 -44 48 -49 100 -5 55 -5
58 16 55 15 -2 24 -12 28 -33 l7 -30 1 33 c0 17 6 32 12 32 8 0 10 -17 5 -55
-4 -35 -2 -55 4 -55 5 0 10 24 10 54 0 90 19 76 23 -16 l3 -83 2 88 c1 62 6
87 15 87 9 0 11 -25 9 -100 -3 -72 -1 -100 8 -100 8 0 11 31 9 110 -2 79 1
114 10 123 10 10 12 -17 9 -136 -2 -87 1 -146 6 -144 5 2 8 61 7 136 -2 107 0
132 11 129 10 -4 13 -38 11 -151 0 -82 3 -147 8 -147 5 0 9 61 9 135 0 87 4
135 10 135 7 0 10 -55 9 -161 0 -88 2 -163 5 -166 3 -4 6 64 6 151 0 102 3
155 10 151 6 -4 10 -54 10 -116 0 -75 3 -108 11 -104 7 5 8 39 3 102 -5 74 -4
95 6 91 9 -3 12 -44 11 -162 -1 -110 1 -156 9 -151 6 4 10 16 9 28 -1 12 -1
75 -1 140 2 86 5 116 14 111 8 -5 9 -52 5 -171 -4 -102 -3 -163 3 -163 6 0 10
65 10 162 0 89 4 158 8 152 4 -5 5 -110 2 -234 -6 -248 -4 -300 11 -300 6 0
10 12 9 28 -7 99 1 492 10 487 6 -3 11 -60 12 -128 l2 -122 5 115 c4 69 9 110
14 102 5 -7 7 -163 5 -347 -1 -183 0 -337 5 -341 9 -10 9 -27 7 350 -1 232 2
326 9 321 7 -4 12 -91 13 -258 l3 -252 2 238 c2 139 7 237 13 237 11 0 62 -84
64 -106 0 -9 -9 -23 -21 -31 -21 -14 -21 -13 -16 25 3 22 1 48 -5 58 -8 14
-11 3 -14 -50 -2 -57 0 -70 15 -77 13 -7 17 -23 17 -64 0 -44 4 -57 22 -70 13
-9 23 -27 24 -43 1 -16 5 -38 8 -50 6 -19 4 -22 -18 -22 -39 0 -38 -13 4 -60
22 -25 40 -51 40 -60 0 -12 12 -16 55 -16 47 0 56 3 61 21 4 11 20 36 35 55
39 46 37 60 -6 60 -30 0 -35 3 -35 24 0 14 5 28 10 31 8 5 7 11 -1 21 -14 17
4 44 28 44 12 0 14 12 11 55 -1 30 1 55 5 55 12 0 57 47 57 60 0 18 -27 11
-58 -15 -26 -22 -30 -22 -44 -9 -14 14 -12 19 14 47 l29 32 -22 17 -21 18 26
11 c18 9 29 26 40 63 8 27 14 52 12 53 -2 2 -14 -6 -28 -17 l-26 -20 -5 30
c-6 29 -28 56 -62 75 -17 10 -16 13 4 50 23 43 27 70 11 80 -6 4 -10 -7 -10
-25 0 -37 -17 -73 -31 -65 -5 4 -9 17 -9 31 0 27 -48 94 -67 94 -9 0 -10 7 -3
26 12 31 12 34 1 34 -5 0 -11 -13 -14 -30 -4 -16 -11 -30 -16 -30 -13 0 5 61
21 72 7 4 19 8 26 8 6 0 12 5 12 10 0 17 -29 11 -50 -10 -11 -11 -20 -30 -20
-41 0 -21 -1 -21 -19 3 -12 14 -18 33 -15 45 3 11 -1 25 -11 33 -14 12 -14 15
2 32 12 14 14 21 5 30 -14 14 -43 -7 -36 -26 3 -7 -1 -18 -9 -25 -12 -9 -15
-6 -20 17 -8 38 -46 58 -78 42 -13 -7 -28 -19 -32 -26 -10 -17 -50 -19 -45 -2
8 24 57 50 102 55 44 5 76 26 62 40 -4 4 -10 2 -15 -5 -4 -6 -31 -16 -61 -22
-30 -6 -64 -20 -77 -32 l-23 -21 17 41 c10 27 22 42 33 42 24 0 32 26 14 44
-21 22 -41 10 -47 -27 -3 -18 -12 -54 -20 -82 -15 -49 -15 -49 -16 -14 -1 43
-47 139 -67 139 -20 0 -17 -18 5 -29 10 -6 26 -29 35 -51 17 -43 22 -165 7
-174 -5 -3 -6 14 -4 39 9 76 -3 110 -58 162 -58 56 -139 155 -161 197 l-16 30
-26 -52z m84 -80 c6 -7 8 -17 5 -22 -3 -6 1 -7 9 -4 11 4 16 0 16 -11 0 -21
-20 -15 -34 11 -6 10 -17 23 -23 27 -7 4 -13 15 -13 22 0 8 -4 15 -10 15 -5 0
-10 8 -10 18 0 13 6 10 25 -13 13 -16 29 -36 35 -43z m1 -69 c31 -49 18 -50
-21 -2 l-33 42 -38 -44 c-49 -56 -51 -37 -3 25 35 46 37 47 55 30 11 -10 29
-33 40 -51z m53 -6 c-5 -18 -4 -20 7 -10 10 10 21 3 56 -32 42 -44 53 -65 33
-65 -5 0 -10 6 -10 13 0 20 -52 65 -80 69 -28 3 -42 27 -28 45 15 19 30 5 22
-20z m-194 -4 c0 -25 -1 -26 -16 -11 -9 9 -13 21 -10 27 13 20 26 11 26 -16z
m123 -31 c9 -8 17 -22 17 -30 0 -10 -5 -12 -17 -7 -22 9 -41 9 -70 0 -33 -10
-30 18 3 44 27 21 35 20 67 -7z m-199 -10 c-6 -4 -18 -20 -27 -37 -13 -23 -16
-26 -17 -11 0 21 40 70 49 60 3 -3 1 -8 -5 -12z m86 -2 c12 -8 12 -10 -5 -10
-11 0 -35 -9 -54 -21 -32 -19 -33 -22 -27 -62 4 -23 8 -68 9 -101 2 -58 2 -58
42 -74 40 -16 57 -30 49 -43 -2 -4 6 -9 18 -12 35 -10 12 -20 -27 -13 -19 4
-51 21 -70 38 -30 26 -35 36 -35 75 0 24 4 53 10 63 7 13 6 21 -5 30 -18 15
-19 69 -1 92 12 16 63 48 76 48 3 0 12 -5 20 -10z m205 -4 c18 -8 38 -23 44
-34 15 -27 14 -75 -1 -90 -19 -19 -30 -14 -18 7 26 50 2 95 -59 107 -23 5 -29
9 -19 15 17 11 13 11 53 -5z m-190 -36 c3 -5 -1 -10 -9 -10 -17 0 -46 -48 -39
-67 2 -6 -1 -14 -6 -18 -6 -3 -19 10 -28 30 -17 37 -17 37 6 56 25 20 66 25
76 9z m108 -17 c27 -19 37 -32 34 -45 -3 -10 -2 -18 3 -18 14 0 19 -29 7 -42
-7 -7 -12 -22 -12 -33 0 -15 -8 -21 -30 -23 -16 -2 -35 -8 -41 -13 -16 -13
-36 12 -24 31 9 13 10 13 11 0 0 -10 3 -8 9 5 5 11 9 16 9 10 1 -5 13 -11 28
-12 25 -1 26 0 10 12 -17 12 -25 31 -9 21 4 -2 14 -1 22 5 12 7 12 9 -4 9 -15
0 -16 3 -6 15 10 12 9 15 -6 15 -18 1 -18 1 0 15 17 13 17 21 1 13 -2 -2 -11
6 -19 17 -14 19 -15 19 -22 1 -7 -18 -8 -18 -21 0 -12 17 -19 9 -14 -18 0 -5
-3 -8 -9 -8 -5 0 -10 5 -10 10 0 6 -5 10 -12 10 -8 0 -6 -6 4 -16 15 -16 15
-18 -5 -36 -12 -11 -16 -17 -9 -13 6 3 12 1 12 -5 0 -15 -29 -25 -41 -13 -15
15 1 43 25 44 16 1 17 2 4 6 -10 2 -18 13 -18 23 0 10 8 21 18 24 9 3 28 13
42 21 32 19 27 19 73 -12z m71 21 c31 -12 38 -41 20 -80 -13 -26 -14 -38 -5
-47 6 -6 11 -23 11 -39 0 -20 -8 -31 -30 -43 -16 -8 -37 -15 -47 -15 -16 1
-15 3 5 19 12 11 22 26 22 35 0 8 5 18 11 21 22 14 -6 135 -31 135 -6 0 -10 5
-10 10 0 11 30 13 54 4z m-486 -30 c17 -12 21 -21 16 -42 -7 -27 -7 -27 14 -9
30 27 64 19 68 -16 1 -16 8 -35 15 -43 6 -8 10 -16 8 -17 -56 -40 -95 -48
-102 -19 -4 21 20 72 35 72 6 0 9 3 6 6 -4 3 -18 -2 -32 -11 -25 -17 -26 -17
-19 0 4 12 3 16 -4 12 -7 -5 -9 1 -6 15 3 17 2 19 -5 9 -5 -7 -15 -10 -21 -7
-6 4 -11 2 -11 -3 0 -6 -9 -11 -20 -11 -26 0 -25 22 3 54 26 30 26 30 55 10z
m794 -19 c4 -5 8 -20 8 -31 0 -12 7 -25 16 -28 13 -5 13 -11 -7 -45 -20 -36
-38 -45 -55 -28 -4 4 0 7 9 7 10 0 14 5 11 15 -4 8 -1 15 7 15 7 0 9 3 6 7 -4
3 -3 11 2 17 5 6 5 20 0 31 -8 20 -8 20 -9 0 -1 -16 -4 -14 -15 10 -9 21 -14
24 -14 12 -1 -10 -5 -15 -11 -12 -5 3 -10 1 -10 -4 0 -6 -4 -11 -10 -11 -5 0
-10 14 -10 30 0 27 8 35 33 31 4 0 7 4 7 10 0 12 27 -5 42 -26z m-92 -37 c22
-24 25 -34 10 -43 -6 -4 -8 -11 -5 -16 4 -5 3 -18 0 -29 -7 -21 -49 -28 -60
-10 -3 6 -10 10 -15 10 -18 0 23 -61 51 -75 16 -9 29 -23 29 -31 0 -12 -11 -7
-40 16 -49 39 -61 60 -55 97 3 15 8 45 11 66 5 30 10 37 30 37 13 0 32 -10 44
-22z m-313 -4 c7 -19 -20 -49 -36 -40 -12 8 -15 39 -4 49 12 12 33 7 40 -9z
m469 -9 c6 -14 -3 -52 -10 -44 -2 2 -6 16 -10 32 -7 29 10 39 20 12z m-921
-25 c0 -8 4 -18 10 -22 6 -5 5 -12 -3 -20 -16 -16 -34 1 -37 37 -3 20 1 25 13
23 9 -2 17 -10 17 -18z m42 6 c-3 -7 0 -19 6 -25 6 -6 7 -11 2 -11 -5 0 0 -7
11 -15 16 -13 17 -16 4 -24 -12 -8 -12 -13 -2 -23 9 -9 12 -9 12 0 0 6 13 10
30 9 38 -3 38 -12 1 -32 -16 -8 -33 -25 -36 -37 -7 -20 -8 -20 -17 -3 -6 9 -8
37 -5 62 3 30 1 46 -8 49 -15 6 -18 64 -3 64 5 0 8 -6 5 -14z m208 -3 c-4 -10
-9 -40 -10 -66 -1 -27 -6 -52 -11 -56 -5 -4 -72 -58 -149 -119 -162 -128 -208
-173 -230 -224 -10 -26 -20 -36 -30 -32 -22 9 17 76 80 137 62 60 301 251 320
255 11 3 12 9 4 29 -11 29 5 93 23 93 6 0 7 -7 3 -17z m389 -15 c5 -14 5 -38
0 -54 -8 -29 -8 -28 -12 11 -2 22 -8 44 -13 50 -13 13 -11 27 4 23 6 -3 16
-16 21 -30z m-315 -10 c8 -18 23 -43 34 -55 17 -20 18 -23 4 -23 -27 0 -66 22
-72 41 -6 19 4 69 14 69 3 0 12 -15 20 -32z m281 3 c7 -17 9 -43 5 -60 -8 -39
-65 -88 -110 -97 -40 -7 -62 3 -27 13 12 3 22 12 22 20 0 8 20 23 44 34 35 15
45 25 48 48 2 16 1 38 -4 50 -12 32 8 25 22 -8z m-225 -8 c-19 -15 -19 -15 4
-8 17 5 22 4 19 -6 -6 -19 -52 -18 -56 2 -1 9 7 20 20 26 30 14 38 5 13 -14z
m-444 -29 c-17 -21 -18 -30 -9 -48 16 -32 18 -31 11 8 -4 28 -2 37 12 42 21 9
38 -15 23 -33 -8 -10 -7 -12 6 -7 19 7 22 -12 4 -20 -7 -2 -2 -4 12 -3 15 1
28 10 32 22 5 17 6 16 7 -6 1 -30 -16 -41 -51 -32 -20 6 -21 4 -10 -9 9 -11
10 -18 2 -23 -5 -3 -13 1 -16 9 -3 9 -12 16 -18 16 -24 0 -48 85 -29 103 3 4
15 7 25 7 19 0 19 -1 -1 -26z m1013 4 c8 -13 6 -26 -7 -54 -10 -20 -21 -34
-24 -30 -4 3 0 17 7 31 11 21 10 28 -4 50 -17 25 -17 27 0 23 9 -1 22 -11 28
-20z m-780 -37 c-10 -17 -21 -31 -24 -31 -3 0 -18 -12 -33 -26 -16 -14 -31
-23 -34 -20 -8 8 26 44 48 51 11 4 19 12 19 20 0 15 30 48 37 41 3 -2 -3 -18
-13 -35z m739 -10 c-2 -48 -17 -73 -39 -64 -8 3 -14 0 -14 -7 0 -6 -10 -10
-22 -8 -26 3 -26 22 0 24 45 3 52 5 52 15 0 6 -9 8 -21 4 -13 -4 -27 -1 -38 9
-17 16 -19 15 -26 -16 -4 -20 -9 -27 -12 -18 -3 8 -21 29 -41 47 l-36 32 39
-4 c22 -1 46 2 52 7 9 8 15 4 22 -13 5 -13 10 -17 11 -9 0 13 2 13 9 1 15 -23
39 -6 33 24 -4 22 -2 26 14 23 15 -3 19 -12 17 -47z m-478 16 c11 0 28 3 38 8
17 7 18 6 7 -12 -26 -41 -45 -44 -76 -11 -23 24 -25 29 -9 23 11 -5 29 -8 40
-8z m-535 -28 c15 -26 7 -34 -18 -20 -29 15 -29 15 -29 -21 -1 -18 1 -27 4
-20 3 6 10 9 16 5 6 -4 8 -1 5 8 -5 12 1 14 23 11 31 -4 37 -20 17 -40 -16
-16 -51 -16 -42 1 6 10 4 10 -7 0 -21 -21 -31 -15 -27 16 1 16 -3 36 -11 44
-18 22 -6 37 29 37 19 0 33 -7 40 -21z m1135 11 c4 -6 2 -17 -5 -24 -6 -8 -8
-25 -5 -38 4 -16 1 -29 -9 -37 -10 -8 -16 -9 -16 -3 0 6 -3 19 -7 29 -6 16 -5
17 12 3 17 -14 18 -14 7 6 -6 12 -9 24 -6 27 3 3 3 11 -1 18 -6 8 -10 7 -17
-5 -10 -17 -38 -22 -38 -7 0 31 70 56 85 31z m-225 -133 c161 -130 230 -204
230 -248 0 -28 -17 -23 -24 7 -10 39 -87 115 -243 241 -129 103 -159 133 -135
133 4 0 82 -60 172 -133z m-349 106 c36 20 38 5 3 -22 l-26 -21 -29 21 c-36
25 -39 46 -3 22 25 -16 28 -16 55 0z m617 -48 c-1 -12 3 -30 11 -39 8 -9 11
-19 8 -23 -4 -3 -15 5 -26 18 -11 13 -15 26 -10 27 5 2 9 8 9 13 0 4 -7 6 -15
3 -10 -4 -15 0 -15 13 0 11 3 23 7 26 11 12 34 -16 31 -38z m-1037 10 c0 -6
-11 -12 -23 -13 -13 -2 -27 -10 -31 -18 -6 -11 -12 -11 -27 -1 -11 6 -20 17
-20 24 0 16 12 17 27 2 8 -8 17 -7 34 5 25 17 41 17 40 1z m942 -5 c-7 -27
-21 -34 -38 -20 -25 21 -18 40 14 40 24 0 28 -3 24 -20z m-63 -5 c0 -21 -34
-37 -48 -23 -9 9 -6 15 11 24 30 17 37 16 37 -1z m-1079 -47 c7 -14 7 -23 -2
-34 -15 -18 -28 -7 -31 28 -1 15 -6 24 -11 21 -5 -3 -6 -11 -3 -18 4 -12 -2
-13 -34 -5 -3 0 5 9 18 20 26 21 47 17 63 -12z m219 22 c0 -5 -5 -10 -10 -10
-12 0 -15 -2 -75 -55 -33 -29 -45 -34 -70 -29 -38 8 -37 5 -24 43 14 39 41 56
69 41 24 -13 19 -25 -12 -33 -23 -6 -23 -6 -3 9 20 15 19 16 -4 12 -14 -2 -26
-8 -28 -14 -4 -11 46 -38 55 -29 3 3 -1 5 -9 6 -8 1 -4 4 9 7 13 4 23 12 24
17 1 26 21 45 48 45 17 0 30 -4 30 -10z m805 -10 c10 -11 16 -23 12 -26 -9 -9
-48 6 -42 17 4 5 -1 9 -9 9 -9 0 -16 5 -16 10 0 17 36 11 55 -10z m80 4 c15
-6 45 -53 45 -72 0 -17 -63 -24 -78 -9 -11 12 -9 16 17 27 17 7 31 16 31 21 0
10 -40 23 -47 15 -4 -3 1 -6 10 -6 10 0 17 -5 17 -11 0 -5 -3 -8 -7 -6 -5 2
-16 7 -27 11 -15 5 -16 9 -6 21 14 17 21 18 45 9z m111 -8 c7 -18 -14 -58 -27
-51 -10 7 -12 48 -2 58 11 11 23 8 29 -7z m-1310 -74 c-13 -21 -25 -47 -28
-58 -4 -23 -22 -22 -26 1 -6 26 17 72 41 83 36 18 38 14 13 -26z m117 -25
c-10 -16 -25 22 -17 46 7 21 8 21 15 -7 5 -16 5 -34 2 -39z m1160 16 c-3 -7
-11 -13 -19 -13 -17 0 -18 -12 -1 -29 10 -10 8 -12 -8 -9 -27 5 -32 44 -7 52
15 5 18 13 15 29 -5 21 -5 22 10 2 8 -10 13 -25 10 -32z m106 32 c42 -21 65
-105 29 -105 -6 0 -7 8 -4 17 4 10 4 14 0 10 -4 -4 -15 11 -25 33 -10 22 -21
40 -24 40 -3 0 -3 -4 0 -10 3 -5 2 -10 -4 -10 -5 0 -9 9 -8 20 2 24 1 24 36 5z
m-49 -43 c26 -1 53 -29 44 -43 -3 -5 0 -9 5 -9 25 0 8 -28 -20 -34 -36 -7 -49
-1 -48 22 0 11 3 12 6 5 2 -7 9 -13 14 -13 6 0 8 4 5 9 -4 5 0 12 6 14 7 3 0
6 -17 6 -46 2 -60 14 -44 39 7 12 16 18 19 14 3 -5 16 -9 30 -10z m-1272 -4
c9 -9 12 -9 12 1 0 7 4 10 9 6 12 -7 11 -64 -2 -72 -5 -3 -13 1 -18 8 -6 10
-9 7 -10 -11 0 -14 -3 -19 -6 -12 -2 6 -9 12 -14 12 -6 0 -7 -5 -4 -10 4 -7
-3 -8 -22 -4 -36 9 -35 6 -22 43 6 18 21 36 33 41 29 12 30 12 44 -2z m80 -25
c-6 -7 -17 -13 -24 -13 -12 0 -11 5 2 26 13 18 19 22 25 12 4 -7 3 -18 -3 -25z
m592 -18 c0 -9 -33 4 -41 16 -7 11 -9 11 -9 -3 0 -10 -5 -18 -10 -18 -7 0 -7
6 0 20 10 19 12 19 35 4 14 -9 25 -18 25 -19z m-801 -31 c25 -32 17 -53 -10
-28 -11 9 -17 19 -14 22 3 3 0 11 -6 19 -8 9 -8 13 -1 13 6 0 20 -12 31 -26z
m172 -3 c-14 -25 -48 -45 -56 -32 -3 5 4 12 15 16 11 3 25 15 31 27 6 11 13
17 16 15 2 -3 0 -15 -6 -26z m1203 -18 c12 -7 15 -13 7 -17 -12 -8 -61 37 -61
56 0 8 8 4 18 -8 9 -12 25 -26 36 -31z m159 30 c-9 -27 -24 -43 -38 -43 -11 0
-10 6 1 30 17 32 48 43 37 13z m-725 -6 c6 3 12 -2 12 -9 0 -8 -10 -14 -25
-14 -14 0 -25 5 -25 11 0 5 -4 4 -9 -4 -6 -9 -11 -10 -15 -2 -12 19 3 31 27
22 12 -4 28 -6 35 -4z m-578 -97 c0 -58 -1 -60 -20 -48 -11 7 -20 19 -20 26 0
17 27 82 34 82 4 0 6 -27 6 -60z m590 42 c0 -4 -29 -9 -65 -10 -38 -1 -65 2
-65 8 0 6 29 10 65 10 36 0 65 -4 65 -8z m-690 -10 c0 -12 -23 -32 -37 -32
-19 0 -16 28 5 33 28 8 32 7 32 -1z m1274 2 c19 -7 21 -34 3 -34 -14 0 -37 20
-37 32 0 10 13 10 34 2z m-1374 -24 c-9 -6 -10 -10 -3 -10 6 0 15 5 18 10 8
12 25 13 25 1 0 -14 -30 -22 -53 -15 -20 6 -20 7 -2 20 10 8 21 11 24 8 3 -3
-1 -9 -9 -14z m728 -1 c15 1 22 -3 22 -13 0 -9 -4 -16 -10 -16 -5 0 -10 6 -10
13 0 8 -3 8 -9 -2 -8 -12 -12 -12 -25 2 -19 19 -21 31 -3 20 6 -4 22 -6 35 -4z
m742 1 c0 -12 -34 -22 -54 -14 -27 10 -18 21 19 22 19 1 35 -3 35 -8z m-1341
-46 c45 -23 52 -30 46 -48 -4 -11 -9 -33 -12 -48 l-5 -28 -104 0 c-57 0 -104
2 -104 5 0 29 80 115 106 115 5 0 28 -19 51 -42 43 -42 43 -42 43 -15 0 21 -8
31 -41 48 -23 11 -51 18 -63 15 -34 -8 -40 -8 -44 2 -3 10 19 17 59 21 8 0 39
-11 68 -25z m1305 16 c15 0 16 -2 6 -15 -9 -11 -16 -13 -24 -5 -5 5 -18 10
-28 10 -29 0 -98 -39 -98 -55 0 -27 17 -24 50 10 19 19 38 35 43 35 27 0 107
-85 107 -115 0 -3 -48 -5 -106 -5 -101 0 -106 1 -101 20 3 10 -1 27 -9 37 -20
27 -17 37 17 57 41 24 80 36 104 31 11 -3 28 -5 39 -5z m-1274 -165 c0 -12
-18 -15 -105 -15 -87 0 -105 3 -105 15 0 12 18 15 105 15 87 0 105 -3 105 -15z
m1328 -2 c3 -10 -22 -13 -102 -13 -94 0 -131 9 -93 23 28 11 190 2 195 -10z
m-1378 -63 c0 -5 -25 -10 -55 -10 -30 0 -55 5 -55 10 0 6 25 10 55 10 30 0 55
-4 55 -10z m1325 0 c4 -6 -15 -10 -49 -10 -31 0 -56 5 -56 10 0 6 22 10 49 10
28 0 53 -4 56 -10z m-1335 -60 c0 -29 -2 -30 -45 -30 -32 0 -45 4 -45 14 0 8
-3 21 -6 30 -5 13 2 16 45 16 50 0 51 -1 51 -30z m1340 0 c0 -29 -1 -30 -50
-30 -49 0 -50 1 -50 30 0 29 1 30 50 30 49 0 50 -1 50 -30z m55 -70 c-3 -6
-48 -10 -100 -10 -52 0 -97 4 -100 10 -4 6 32 10 100 10 68 0 104 -4 100 -10z"/>
<path d="M776 1841 c-25 -26 -33 -40 -24 -43 22 -8 37 2 31 20 -5 13 0 11 19
-6 23 -21 27 -22 41 -8 17 17 32 22 23 7 -6 -9 35 -24 43 -15 7 6 -71 84 -84
84 -6 0 -28 -17 -49 -39z"/>
<path d="M2107 1842 c-43 -44 -46 -53 -14 -48 12 2 21 9 20 15 -4 15 6 14 24
-5 14 -14 18 -13 41 8 20 18 24 19 19 6 -5 -14 -1 -18 20 -18 l27 0 -39 40
c-21 22 -44 40 -50 40 -6 0 -28 -17 -48 -38z m58 -18 c-7 -8 -17 -14 -21 -14
-5 0 -3 5 4 12 7 7 12 17 12 23 0 5 -4 3 -10 -5 -5 -8 -12 -11 -17 -7 -12 13
20 27 34 15 10 -8 10 -13 -2 -24z"/>
<path d="M980 2520 c-13 -8 -13 -11 2 -27 21 -20 45 -5 35 21 -7 18 -16 20
-37 6z"/>
<path d="M824 2336 c-9 -23 7 -38 26 -26 13 8 13 11 -2 26 -16 17 -18 17 -24
0z"/>
<path d="M2134 2336 c-9 -23 7 -38 26 -26 13 8 13 11 -2 26 -16 17 -18 17 -24
0z"/>
<path d="M730 2180 c0 -15 5 -20 18 -18 9 2 17 10 17 18 0 8 -8 16 -17 18 -13
2 -18 -3 -18 -18z"/>
<path d="M2215 2190 c-8 -14 3 -30 21 -30 8 0 14 9 14 20 0 21 -24 28 -35 10z"/>
<path d="M971 1668 c0 -98 3 -178 7 -178 8 0 5 304 -2 340 -2 8 -4 -65 -5
-162z"/>
<path d="M2000 1672 c-3 -96 -1 -176 3 -179 5 -3 9 -3 10 -2 1 2 0 83 -3 179
l-5 175 -5 -173z"/>
<path d="M1595 1756 c-41 -13 -58 -41 -32 -52 12 -4 13 -12 6 -37 -5 -17 -5
-33 -1 -36 5 -4 11 -14 15 -23 3 -10 16 -18 27 -18 27 0 22 -26 -19 -102 -17
-31 -28 -64 -25 -73 8 -19 24 -20 24 -1 0 8 7 17 16 20 12 4 15 2 10 -9 -3 -8
-1 -15 4 -15 13 0 13 27 0 35 -5 3 -10 11 -10 16 0 6 4 8 9 5 5 -4 12 7 16 24
8 35 49 71 73 63 26 -9 42 -34 42 -64 0 -33 -41 -128 -82 -186 l-30 -45 22
-136 c27 -172 61 -366 64 -369 1 -2 15 3 30 10 23 10 26 16 21 42 -14 73 -17
120 -7 110 6 -5 17 -56 26 -111 19 -120 19 -114 6 -114 -5 0 -9 6 -7 13 1 8
-11 11 -43 9 -40 -2 -43 -1 -27 11 16 13 16 15 1 21 -28 11 -35 6 -32 -21 3
-25 8 -29 48 -34 40 -5 36 -6 -26 -7 l-71 -2 4 -37 c4 -43 28 -66 56 -57 13 4
17 2 13 -5 -9 -15 -39 -14 -54 1 -9 9 -12 7 -12 -9 0 -12 5 -25 10 -28 6 -3
10 -11 10 -17 0 -6 -3 -8 -6 -5 -4 3 -15 -5 -26 -18 -10 -13 -34 -30 -53 -36
-19 -7 -35 -16 -35 -20 0 -4 -14 -10 -31 -14 -33 -7 -57 11 -39 29 6 6 5 15
-1 23 -9 9 -8 17 1 28 9 11 10 15 1 15 -7 0 -19 7 -27 15 -14 13 -10 17 14 14
4 -1 6 -5 4 -11 -1 -5 2 -7 8 -3 5 3 13 -1 16 -10 6 -13 8 -14 15 -3 7 11 9
11 9 -1 0 -8 -8 -20 -17 -28 -16 -11 -14 -12 11 -1 24 10 30 10 41 -5 7 -9 18
-17 25 -17 10 0 9 4 -1 17 -12 15 -12 16 2 11 13 -5 16 -2 12 12 -6 21 12 36
23 19 4 -8 3 -9 -4 -5 -7 4 -12 2 -12 -3 0 -6 7 -11 15 -11 8 0 15 3 15 6 0
15 -41 144 -46 144 -3 0 -4 -8 -2 -17 2 -10 -3 -24 -12 -31 -8 -8 -9 -11 -2
-7 18 9 38 -5 21 -16 -11 -7 -11 -9 1 -9 13 0 13 -1 0 -10 -13 -8 -12 -10 4
-10 16 0 17 -3 8 -12 -6 -6 -19 -13 -28 -14 -13 -2 -15 4 -11 29 3 18 3 25 0
17 -4 -8 -19 30 -35 85 -32 115 -33 122 -13 105 12 -10 16 -9 21 4 3 8 4 21 1
28 -3 8 -6 6 -6 -5 -1 -10 -6 -15 -11 -12 -6 4 -8 11 -5 16 4 5 1 9 -4 9 -6 0
-11 5 -11 11 0 5 4 7 10 4 6 -4 7 1 3 11 -4 12 -3 15 5 10 8 -5 10 -2 5 10 -5
14 -8 13 -20 -7 -14 -24 -14 -24 -9 -1 16 63 16 67 1 37 -14 -26 -15 -27 -10
-5 3 14 8 39 10 55 5 29 5 29 -9 -5 -18 -44 -20 -18 -2 33 l13 39 13 -63 c8
-35 15 -58 17 -52 2 6 -7 58 -20 116 -14 58 -22 117 -19 132 4 22 1 26 -13 23
-10 -2 -19 -14 -21 -28 l-4 -25 16 25 15 25 -7 -25 c-13 -50 -22 -56 -29 -19
-3 19 -5 39 -4 44 5 23 -22 63 -50 75 -25 10 -31 19 -32 44 -1 22 -3 25 -6 9
-2 -12 -13 -39 -23 -60 l-19 -38 5 60 c3 33 1 80 -5 105 -9 40 -9 35 -6 -40 2
-54 1 -69 -3 -40 -5 33 -9 40 -14 27 -4 -10 -2 -38 4 -62 10 -39 9 -59 -11
-147 -12 -57 -47 -175 -78 -263 -30 -88 -56 -170 -57 -182 0 -11 -4 -19 -8
-17 -8 5 -70 -165 -66 -185 2 -10 16 -17 38 -19 24 -2 31 0 21 6 -7 5 -23 8
-35 5 -19 -4 -20 -3 -3 7 10 7 21 9 24 6 4 -3 12 -1 20 5 10 9 13 6 14 -12 1
-17 4 -14 11 14 8 30 14 37 31 35 11 -2 22 -9 25 -17 3 -8 0 -11 -5 -8 -6 4
-19 0 -29 -8 -18 -15 -18 -15 1 -8 11 3 17 3 13 -2 -4 -4 -3 -14 3 -21 8 -10
-23 -12 -151 -13 -156 -2 -160 -1 -160 19 0 12 11 31 25 44 14 13 25 25 25 27
0 2 -49 4 -109 4 l-110 0 25 -26 c13 -14 24 -35 24 -48 0 -22 -2 -22 -100 -19
-55 2 -100 1 -100 -1 0 -2 9 -19 21 -37 l21 -34 -71 0 -71 0 0 -40 0 -40 1030
0 1030 0 0 40 0 40 -71 0 -71 0 21 34 c12 18 21 35 21 37 0 2 -46 4 -102 4
-97 0 -103 1 -100 20 2 11 12 29 23 41 10 11 19 22 19 25 0 2 -47 4 -105 4
-58 0 -105 -2 -105 -4 0 -2 11 -14 25 -27 14 -13 25 -32 25 -44 0 -19 -5 -20
-189 -20 l-190 0 6 34 c3 22 0 38 -9 47 -12 11 -13 17 -1 39 7 14 13 42 13 62
0 31 -3 36 -17 31 -11 -4 -8 2 8 15 14 11 41 25 60 30 19 5 33 14 32 20 -2 7
8 10 25 8 15 -2 21 -1 13 1 -9 4 -10 7 -3 12 8 5 -1 50 -28 146 -80 280 -93
377 -76 560 7 77 6 96 -8 123 -14 28 -21 31 -44 26 -21 -4 -24 -3 -12 5 19 13
0 14 -20 1 -13 -9 -13 -10 0 -10 11 -1 10 -4 -4 -15 -26 -20 -35 -19 -32 3 1
9 16 24 33 32 17 8 31 22 31 30 0 8 5 31 10 51 8 30 6 42 -10 68 -22 34 -38
37 -103 17z m73 -102 c-6 -32 -25 -26 -20 6 3 21 8 28 14 22 6 -6 8 -18 6 -28z
m37 -431 c3 -27 18 -101 32 -166 19 -87 22 -122 14 -130 -6 -6 -13 -9 -15 -6
-7 7 -56 291 -56 323 0 44 18 29 25 -21z m-319 -15 c30 -10 34 -17 39 -57 20
-158 39 -262 55 -304 10 -27 16 -55 14 -62 -3 -7 4 -46 15 -86 11 -41 17 -77
13 -81 -10 -10 -42 0 -42 13 0 11 23 7 32 -6 5 -6 8 -6 8 1 0 6 -7 17 -15 24
-8 7 -12 17 -9 22 3 5 -3 12 -15 15 -11 3 -19 8 -17 12 3 3 -13 6 -35 6 -38 0
-39 0 -33 -29 4 -20 3 -26 -5 -22 -6 4 -9 11 -6 16 3 5 1 11 -5 15 -5 3 -10 1
-10 -5 0 -6 -4 -9 -8 -6 -4 2 -7 -7 -6 -22 4 -68 4 -68 13 -53 5 8 7 25 5 38
-3 16 -1 22 6 18 6 -4 9 -14 6 -22 -4 -9 -2 -11 6 -7 7 5 8 3 3 -6 -5 -8 -4
-11 2 -7 5 3 10 0 10 -8 0 -10 -4 -12 -12 -5 -9 8 -14 5 -18 -10 -4 -17 -3
-19 9 -9 8 6 14 8 14 4 0 -4 6 -2 14 4 16 14 14 47 -3 43 -17 -3 -13 15 5 22
17 7 54 -10 54 -24 0 -6 -5 -9 -11 -8 -6 2 -14 -4 -16 -12 -4 -12 -3 -12 5 -2
7 11 11 8 16 -10 6 -20 8 -21 18 -7 9 13 17 15 33 7 24 -11 50 -78 30 -78 -7
0 -16 7 -19 16 -4 10 -2 13 6 8 7 -5 8 -3 3 5 -5 9 -10 10 -18 2 -8 -8 -16 -6
-29 6 -26 23 -57 26 -84 8 -27 -17 -74 -16 -74 2 0 7 6 13 13 14 10 0 10 2 0
6 -7 2 -13 12 -13 21 0 15 2 15 10 2 7 -11 9 -7 5 15 -3 17 -2 60 3 98 5 37 5
67 1 67 -4 0 -10 -35 -14 -77 -8 -97 -12 -111 -34 -123 -13 -6 -24 -5 -37 6
-11 9 -14 13 -7 10 6 -4 15 -2 18 4 5 8 12 7 23 -2 15 -12 16 -11 3 4 -7 10
-17 15 -22 12 -5 -3 -9 4 -9 15 0 13 6 21 18 21 13 0 14 -2 4 -9 -11 -7 -11
-9 2 -14 21 -8 21 19 1 31 -13 6 -14 14 -6 34 5 15 21 80 34 145 35 170 38
185 28 179 -5 -3 -11 -25 -15 -48 -7 -45 -53 -259 -63 -292 -4 -13 -7 -15 -13
-6 -6 9 -9 9 -15 1 -4 -7 -1 -20 7 -29 12 -15 11 -16 -4 -3 -10 7 -18 10 -19
5 0 -5 -2 -17 -4 -28 -3 -14 -1 -16 8 -7 16 16 32 14 18 -2 -6 -8 -8 -16 -5
-19 2 -3 -6 -5 -19 -5 -28 0 -28 2 18 142 33 104 67 235 63 246 -2 6 -14 -31
-27 -81 -13 -49 -27 -87 -32 -84 -5 3 -7 -1 -4 -8 7 -19 -52 -203 -64 -201 -5
2 -8 -6 -6 -16 2 -10 -1 -24 -6 -32 -5 -8 -9 -10 -9 -6 0 5 -4 6 -9 2 -6 -3
-6 -17 -1 -35 6 -21 4 -32 -7 -41 -17 -14 -53 -20 -53 -8 0 11 29 39 40 39 6
0 5 12 -1 27 -7 19 -7 29 0 31 6 2 9 8 6 13 -4 5 1 6 9 3 13 -5 16 2 17 30 1
34 3 45 9 64 1 4 2 11 1 16 -1 5 6 3 15 -5 16 -13 16 -12 6 7 -15 29 45 213
68 207 12 -4 13 -3 1 5 -11 8 -9 27 13 113 35 134 57 199 70 199 5 0 24 -5 42
-12z m67 -522 c9 -7 17 -19 17 -25 0 -7 4 -10 9 -6 5 3 12 1 15 -4 12 -19 -24
-4 -42 17 -19 22 -39 31 -27 13 3 -5 1 -12 -4 -15 -5 -3 -11 1 -14 8 -3 8 -1
17 6 20 18 7 21 6 40 -8z m-147 -157 c1 -10 -3 -19 -8 -19 -6 0 -8 7 -4 15 3
9 -4 21 -19 31 -25 16 -46 12 -44 -9 0 -9 2 -9 6 1 2 6 10 12 16 12 8 0 7 -4
-1 -12 -7 -7 -12 -18 -12 -26 0 -9 7 -5 19 9 l20 24 -2 -22 c-1 -12 -3 -20 -5
-18 -3 2 -11 -3 -20 -11 -10 -11 -18 -12 -25 -5 -6 6 -19 11 -29 11 -19 0 -25
25 -8 35 5 3 6 13 3 22 -5 13 -2 15 20 9 14 -3 29 -1 32 4 9 15 60 -28 61 -51z
m131 34 c-4 -3 1 -15 10 -26 14 -16 15 -21 4 -25 -8 -3 -10 -7 -3 -11 6 -4 13
-21 17 -39 6 -37 -13 -44 -33 -12 -13 21 -32 27 -32 9 0 -5 4 -8 9 -4 5 3 12
1 16 -5 3 -5 3 -10 -2 -11 -60 -7 -83 -6 -83 4 0 7 -4 6 -10 -3 -7 -11 -10 -6
-10 22 l0 37 43 -1 c23 -1 49 -6 57 -12 12 -8 13 -8 3 4 -15 17 -17 34 -3 25
6 -3 10 -4 10 -1 0 3 -9 10 -20 16 -17 9 -19 8 -14 -7 5 -15 4 -15 -4 -3 -12
16 4 44 19 34 5 -3 9 0 9 5 0 6 5 11 12 11 6 0 8 -3 5 -7z m-63 -39 c4 -12 -1
-15 -21 -12 -14 2 -29 9 -31 17 -3 8 0 11 7 7 6 -4 11 -3 11 3 0 15 27 2 34
-15z m-67 -58 c0 -32 -3 -35 -31 -34 -52 1 -73 7 -73 21 0 7 11 14 24 15 13 1
23 -3 23 -8 0 -6 5 -10 11 -10 8 0 7 5 -2 16 -10 13 -10 17 2 25 30 19 46 10
46 -25z m-459 2 c-7 -19 -38 -22 -38 -4 0 10 9 16 21 16 12 0 19 -5 17 -12z
m1099 -65 c-246 -2 -648 -2 -895 0 -246 1 -44 2 448 2 492 0 694 -1 447 -2z
m427 -28 c-5 -13 -112 -15 -874 -15 -762 0 -869 2 -874 15 -5 13 96 15 874 15
778 0 879 -2 874 -15z"/>
<path d="M1444 801 c3 -18 6 -42 6 -52 0 -11 4 -19 9 -19 9 0 -5 89 -15 99 -4
3 -4 -9 0 -28z"/>
<path d="M688 373 c17 -2 47 -2 65 0 17 2 3 4 -33 4 -36 0 -50 -2 -32 -4z"/>
<path d="M948 373 c34 -2 90 -2 125 0 34 2 6 3 -63 3 -69 0 -97 -1 -62 -3z"/>
<path d="M1408 373 c17 -2 47 -2 65 0 17 2 3 4 -33 4 -36 0 -50 -2 -32 -4z"/>
<path d="M1818 373 c57 -2 147 -2 200 0 53 1 7 3 -103 3 -110 0 -154 -2 -97
-3z"/>
<path d="M2248 373 c17 -2 47 -2 65 0 17 2 3 4 -33 4 -36 0 -50 -2 -32 -4z"/>
<path d="M1345 1710 c-11 -12 -30 -26 -42 -31 -12 -4 -25 -19 -29 -32 -7 -31
19 -111 39 -115 20 -4 30 38 10 45 -13 5 -12 8 5 17 25 13 28 26 10 37 -20 13
-34 11 -20 -3 7 -7 12 -16 12 -20 0 -11 -37 -10 -44 1 -8 12 31 44 44 36 7 -5
9 2 4 19 -5 21 -3 25 9 20 12 -4 14 -20 12 -69 -2 -52 -8 -70 -28 -95 -30 -35
-30 -34 -57 -178 -24 -131 -66 -265 -110 -352 -17 -34 -29 -64 -26 -67 10 -10
84 159 109 245 l24 84 10 -44 c10 -40 11 -41 12 -11 0 18 -4 42 -9 55 -7 17
-5 49 8 118 l18 95 8 -48 c4 -26 14 -59 22 -75 15 -26 16 -26 10 -2 -3 14 -9
35 -12 47 -7 24 8 26 41 4 20 -12 20 -12 -1 -8 -12 2 -21 -1 -21 -8 0 -7 7
-11 16 -10 9 1 10 0 4 -2 -42 -15 37 -148 93 -158 11 -1 18 -7 17 -12 -1 -5 5
-10 13 -10 9 0 11 4 5 10 -5 5 -7 15 -5 22 3 7 0 16 -7 21 -8 5 -11 2 -7 -8 4
-8 0 -15 -8 -15 -7 0 -11 4 -7 10 3 5 -8 23 -25 40 -23 24 -33 48 -42 95 -6
35 -8 73 -5 85 5 17 4 19 -4 7 -10 -13 -11 -13 -11 0 0 8 4 21 9 28 6 10 11
10 21 -3 11 -13 11 -21 2 -36 -7 -10 -12 -24 -12 -31 1 -7 7 -2 14 11 17 31
27 15 28 -49 1 -28 5 -53 10 -56 5 -3 6 -14 3 -24 -3 -10 -1 -21 5 -25 6 -4
10 8 10 32 0 21 5 55 10 75 13 47 3 68 -49 106 -34 25 -37 30 -28 56 7 20 14
26 28 23 12 -3 20 2 24 14 4 10 9 19 13 19 4 0 7 22 7 48 0 55 -21 79 -78 89
-25 4 -37 0 -52 -17z m113 -43 c-31 -32 -88 -49 -88 -27 0 6 10 10 23 10 13 0
32 7 43 15 24 18 40 20 22 2z m-55 -74 c6 -32 -17 -63 -27 -36 -4 9 -2 21 3
26 5 5 7 16 4 23 -3 8 -1 14 5 14 5 0 12 -12 15 -27z m-33 -88 c-11 -13 -10
-14 4 -9 12 4 15 2 10 -9 -3 -9 -13 -13 -26 -9 -17 4 -20 2 -15 -12 4 -9 3
-14 -2 -11 -5 3 -12 -5 -14 -17 -3 -16 -4 -15 -2 5 1 15 -2 27 -7 27 -4 0 -8
4 -8 10 0 5 8 6 18 3 14 -6 15 -4 5 9 -16 18 -7 28 25 28 21 0 23 -2 12 -15z
m8 -96 c-2 -4 -12 -1 -22 6 -16 12 -17 17 -6 31 13 14 15 14 22 -7 5 -12 7
-26 6 -30z m91 -23 l0 -41 -14 50 c-8 28 -14 52 -15 54 0 2 7 -2 15 -9 9 -8
15 -29 14 -54z"/>
<path d="M730 1551 c0 -2 11 -16 25 -33 14 -16 25 -35 25 -42 0 -8 19 -12 55
-12 36 0 55 4 55 12 0 7 11 26 25 42 14 17 25 31 25 33 0 2 -47 4 -105 4 -58
0 -105 -2 -105 -4z"/>
<path d="M1660 1508 c-21 -35 -26 -68 -11 -68 6 0 13 5 16 10 12 19 22 10 20
-20 -1 -16 2 -27 8 -23 5 3 7 -4 3 -18 -3 -13 5 -1 18 26 27 56 32 95 14 113
-21 21 -48 13 -68 -20z"/>
<path d="M776 1435 c4 -8 1 -22 -6 -30 -11 -13 -3 -15 62 -15 l75 0 -5 30 c-4
30 -5 30 -68 30 -52 0 -62 -3 -58 -15z"/>
<path d="M2107 1429 c4 -12 0 -25 -8 -30 -9 -5 18 -9 71 -9 53 0 80 4 71 9 -8
5 -12 18 -8 30 5 20 1 21 -63 21 -64 0 -68 -1 -63 -21z"/>
<path d="M1587 1395 c-9 -6 -17 -23 -16 -36 l1 -24 7 25 c5 17 9 21 15 12 5
-8 -8 -37 -33 -77 -25 -41 -38 -71 -34 -82 4 -11 3 -14 -5 -9 -8 4 -10 2 -6
-7 3 -8 1 -18 -5 -22 -15 -9 5 -45 24 -45 18 0 20 41 3 58 -9 9 -9 12 0 12 14
0 105 90 130 129 14 21 14 24 -1 33 -10 5 -15 14 -12 19 4 5 11 6 17 3 6 -4 8
-2 5 4 -4 5 -15 9 -25 7 -9 -1 -24 1 -32 5 -9 5 -23 3 -33 -5z m55 -27 c-5
-21 -13 -23 -30 -6 -19 19 -14 28 12 26 17 -2 22 -7 18 -20z"/>
<path d="M764 1369 c-12 -20 13 -30 72 -27 47 2 59 7 62 21 3 15 -5 17 -62 17
-36 0 -68 -5 -72 -11z"/>
<path d="M2095 1370 c-13 -22 12 -31 76 -28 49 2 64 7 64 18 0 12 -15 16 -67
18 -41 2 -69 -1 -73 -8z"/>
<path d="M780 1041 c0 -194 -3 -290 -11 -293 -5 -2 -7 -11 -4 -21 6 -13 20
-17 64 -19 l56 -1 -60 -7 -60 -7 61 -1 c57 -2 62 0 65 21 2 12 3 156 1 320
l-3 297 -54 0 -55 0 0 -289z m30 2 c0 -152 -3 -274 -6 -270 -4 3 -6 127 -6
274 1 301 0 273 7 273 3 0 5 -124 5 -277z m30 -3 c0 -173 -4 -270 -10 -270 -6
0 -10 97 -10 270 0 173 4 270 10 270 6 0 10 -97 10 -270z m30 0 c0 -173 -4
-270 -10 -270 -6 0 -10 97 -10 270 0 173 4 270 10 270 6 0 10 -97 10 -270z"/>
<path d="M2110 1041 c0 -222 -3 -291 -12 -295 -10 -5 -10 -7 0 -12 6 -3 10
-10 6 -15 -3 -5 21 -9 54 -9 39 0 61 4 63 13 2 6 3 146 1 310 l-3 297 -54 0
-55 0 0 -289z m27 -133 c-1 -79 -3 -17 -3 137 0 154 2 218 3 143 2 -75 2 -201
0 -280z m33 132 c0 -173 -4 -270 -10 -270 -6 0 -10 97 -10 270 0 173 4 270 10
270 6 0 10 -97 10 -270z m30 0 c0 -173 -4 -270 -10 -270 -6 0 -10 97 -10 270
0 173 4 270 10 270 6 0 10 -97 10 -270z"/>
<path d="M1596 1232 c-3 -5 -3 -23 0 -40 3 -19 1 -32 -5 -32 -6 0 -11 12 -11
27 0 14 -2 24 -6 21 -7 -8 -31 -338 -30 -428 l1 -75 30 -5 30 -6 -32 -8 c-18
-4 -33 -12 -33 -17 0 -6 7 -6 18 0 10 5 42 13 70 17 46 6 52 9 52 30 0 14 -8
25 -20 29 -14 4 -20 15 -20 35 0 16 -4 31 -9 34 -5 4 -5 24 1 48 7 29 6 95 -3
206 -11 149 -19 187 -33 164z m24 -488 c0 -8 5 -12 10 -9 6 3 10 -1 10 -9 0
-9 -8 -16 -17 -16 -29 0 -63 12 -63 21 0 5 8 5 18 2 15 -6 15 -5 3 10 -12 15
-11 17 13 17 17 0 26 -5 26 -16z"/>
<path d="M1252 1151 c-7 -34 -22 -86 -33 -115 -23 -58 -75 -130 -89 -121 -5 3
-14 -4 -20 -15 -14 -26 -61 -50 -99 -50 -37 0 -81 -19 -81 -35 0 -7 -7 -18
-15 -25 -22 -18 -9 -30 33 -31 24 -1 29 -3 14 -6 -13 -3 -22 -8 -20 -11 2 -4
12 -24 21 -45 16 -33 20 -36 38 -26 130 69 298 379 272 503 l-8 39 -13 -62z
m-7 -107 c-43 -128 -149 -290 -225 -344 l-29 -21 -11 22 c-9 15 -9 24 -1 32
22 22 12 37 -24 37 -36 0 -47 13 -19 24 9 3 28 6 43 6 32 0 103 43 165 100 47
43 89 125 109 211 7 30 13 43 15 31 2 -11 -9 -55 -23 -98z m-225 -219 c-28
-16 -80 -21 -64 -6 10 10 39 18 69 19 17 1 17 -1 -5 -13z"/>
<path d="M1647 863 c-11 -10 -8 -43 4 -43 5 0 8 -4 5 -9 -3 -4 6 -6 20 -3 32
6 25 28 -7 24 -24 -4 -24 -3 -4 12 19 15 19 16 1 9 -13 -4 -17 -3 -12 5 8 13
3 16 -7 5z"/>
<path d="M2127 693 c18 -2 50 -2 70 0 21 2 7 4 -32 4 -38 0 -55 -2 -38 -4z"/>
<path d="M760 660 c0 -9 -5 -21 -11 -27 -5 -5 -7 -21 -4 -34 6 -23 9 -24 93
-23 82 1 87 2 90 24 2 12 -1 27 -7 33 -6 6 -11 19 -11 28 0 14 -11 17 -75 16
-63 0 -75 -3 -75 -17z m110 -35 c0 -10 -11 -15 -35 -15 -24 0 -35 5 -35 15 0
10 11 15 35 15 24 0 35 -5 35 -15z"/>
<path d="M2090 659 c0 -10 -4 -20 -8 -23 -5 -3 -7 -18 -5 -33 l5 -28 89 0 c99
0 102 3 78 72 -10 31 -11 31 -85 31 -65 0 -74 -2 -74 -19z m118 -36 c2 -9 -9
-13 -37 -13 -30 0 -41 4 -41 16 0 11 9 14 37 12 20 -2 38 -9 41 -15z"/>
<path d="M704 561 c-2 -2 -4 -10 -4 -18 0 -10 28 -13 130 -13 107 0 130 3 130
14 0 12 -24 15 -126 18 -69 2 -128 1 -130 -1z"/>
<path d="M2038 553 c-7 -9 -6 -14 4 -18 25 -10 248 -1 248 10 0 16 -239 23
-252 8z"/>
</g>
</svg>
